<svg
  version="1"
  xmlns="http://www.w3.org/2000/svg"
  viewBox="0 0 1425 1444"
>
  <path d="M752 1c0 .3.6 1.5 1.4 2.6 1.2 1.6 2.9 1.9 12 2.2 10 .4 10.6.3 10.6-1.6 0-3.6-2.3-4.3-13.4-4-5.8.1-10.6.5-10.6.8zM727.3 14.9c-4.2 1.9-6.3 4.5-6.3 7.7 0 1.5.9 1.6 9.6 1 6.8-.5 9.9-.4 11 .5 2.7 2.2 1.4 2.9-5.3 2.9-14.5.1-25.1 3.7-50.5 17.3L669 53.2l-5.1-1.2c-10.8-2.6-26.5 1-33.9 7.6-3.7 3.4-3.8 3.4-13.8 3.4-15.8 0-33.5 4.1-49.9 11.5-8.5 3.9-24.3 14-24.3 15.5 0 1.7 8.9 1.1 12.8-.9 7-3.5 21.7-8.9 32.7-11.9 15.7-4.4 26.8-6.6 62.3-12.2 17.2-2.7 36.6-6.1 43-7.6 9.8-2.2 13.4-2.5 23.7-2.2 9.4.2 12.7.7 15 2.1 3 1.8 3.2 1.8 11-.9 7.6-2.6 9.2-2.8 34-3.4 23.4-.6 26.6-.9 31.7-2.9 3.1-1.2 6.2-2.9 6.9-3.8 1.2-1.4 1-1.5-1.7-.9-5 1.1-6.4-1.1-6.4-10.3v-7.8L795.3 25c-6.5-1.3-16.6-2.5-22.6-2.8-9.2-.4-10.9-.7-11.8-2.3-.5-1-2.9-2.9-5.2-4.1-6.1-3.2-22.4-3.7-28.4-.9z" />
  <path d="M755.5 58.6c-1.1.3-4.9 1.2-8.5 2-3.6.8-11.7 1.7-18 1.8-7.1.2-15.1 1.2-20.8 2.5-5.2 1.2-12.5 2.2-16.3 2.2-6.2.1-7.1.3-8.6 2.5-1.4 2.1-1.4 3.2-.3 8.3 1.6 7.8.6 9.6-6.7 11.7-8.2 2.4-12.8 1.5-20.8-4-6.1-4.1-7.4-4.7-11.4-4.4-5.6.4-6.3 2.2-2.7 7.5 3.3 4.8 3.2 5.3-.3 5.3-1.7 0-5.2 1.6-8.7 4-6.4 4.4-7.9 4.8-8.8 2.5-.8-2.1-5.3-1.9-8.2.4-1.4 1.1-6.2 3.2-10.7 4.7-8.6 2.9-13.7 6.7-13.7 10.3 0 3.5 6.7 2.6 30-4 44.4-12.5 69.4-17.8 95-19.9 18.2-1.6 17.7-1.4 20-6 1.1-2.2 2.6-4 3.3-4 23.7-.1 37.8-3.4 46.8-10.9 3.3-2.9 3.3-3 1.9-5.7-2.7-4.9-8.2-6.9-20-7.1-5.8-.1-11.4.1-12.5.3zm-41.3 25.6c6.5 1.6 8.4 2.4 6.5 2.6-2.7.3-16.7-3.3-16.7-4.3 0-.7-.1-.7 10.2 1.7zM533.9 90.8c-2.1 1.8-2.2 5.2 0 5.2 2 0 5.4-3.7 4.8-5.3-.8-2.2-1.9-2.1-4.8.1zM524.5 94.7c-3.5.5-5.5 2-5.5 3.9 0 1.4 4.8 1 8.3-.8 1.6-.8 2.5-4 1-3.7-.5.1-2.1.4-3.8.6zM682.3 104.1c-3.4 1-6.3 4.2-6.3 7.1 0 2.5 5.4 2.4 10.3-.2 3-1.6 5.6-2 13.9-2 5.7 0 11.3-.3 12.6-.6 2.5-.7 3-3.9.6-4.8-2.4-.9-27.5-.5-31.1.5zM675.5 114.6c-7.1.8-16.3 1.6-20.4 1.8-5.9.2-7.8.7-9 2.3-1.2 1.5-2.5 1.8-5.2 1.5-2.2-.2-6.4.6-11 2.2-4.2 1.4-8.3 2.6-9.3 2.6s-5.2 3.6-9.4 7.9c-6.7 6.9-8.4 8.2-13.6 9.6-3.2.9-7.1 1.5-8.6 1.2-1.6-.4-3.5 0-4.6.7-1.6 1.2-1.7 1.7-.4 5.5 1.6 5 1 5.9-5.1 7.2-4.3 1-9.9 5.2-9.9 7.4 0 .6-3.6 1.9-8.1 2.9-12.2 2.6-28.7 8.6-48.5 17.7-29.4 13.3-50.1 20.9-57.2 20.9-1.6 0-7.1 3-14.2 7.9-6.3 4.3-14.8 9.5-18.9 11.5-7.5 3.8-20.2 7.6-25.3 7.6-3.7 0-16.6 9.4-20.8 15.1-1.6 2.3-3.2 5.7-3.6 7.6-.6 3.2-1.3 3.8-8.1 6.9-9.1 4.1-14.5 8-28.8 20.7-12.4 11.1-16.8 14.3-25.6 19-6 3.2-6.1 3.3-9.9 12.3-11.4 27.6-23.2 42.6-39.2 50.2-5.4 2.5-5.8 2.9-5.8 6.2 0 1.9-1 5.9-2.2 8.7-2.2 5-2.5 5.3-5.9 5.3-3.1 0-4.2.7-7.3 4.5-2.1 2.5-4.4 4.5-5.2 4.5-.8 0-1.4.9-1.4 2.1 0 1.1-1.5 3.8-3.3 6-1.9 2.1-4.6 6.9-6 10.6-5.3 13.3-9.4 17.3-17.9 17.3-4.5 0-4.9.2-6.8 3.9-1.1 2.2-3.5 9.5-5.3 16.3-4.1 14.7-5.5 18.2-9.2 22.6-2.6 3.2-8.2 6.8-9.1 5.9-.2-.2-1.1-4-2-8.3-2.1-10.6-1.2-17.2 3.1-25.1 3-5.4 3.2-6.3 1.8-7.4-3.1-2.6-6.4.9-12.8 13.3-3.3 6.4-6.7 12.4-7.4 13.3-1.4 1.6-1.6 1.6-2.8-.1-2-2.8-1.6-4.6 3.2-13.8 5.5-10.5 6.1-16.7 2.1-21.3-2.3-2.7-2.8-2.8-10-2.5-6.8.2-7.6 0-9-2-.9-1.2-1.6-3.2-1.6-4.5 0-1.2-.5-2.5-1-2.8-1.5-.9-7.5 3-8.8 5.7-1 2.2-1.1 2.1-1.1-1.1-.1-1.9 1.5-8.3 3.4-14.2 2.6-8.1 3.5-12.6 3.5-17.6 0-9.9-.2-10-9.9-6.8-4.4 1.4-8.5 2.4-9 2.1-1.6-1-9.9 6.3-14.6 12.8-6.1 8.6-10.1 17.5-18 40.6-7.7 22.4-11.7 31.3-17.8 39.6-4.1 5.5-4.5 6.6-5.7 15.4-1.9 15-7.2 33.8-16.4 59.1-9.9 26.8-14 40.4-16.3 53.9-.9 5.2-1.7 9.6-1.8 9.8-.1.1-1.3-.2-2.6-.6-1.6-.6-3.8-.4-6.7.7l-4.4 1.6.6 7.5c1.5 17.8 2.6 42.8 3.2 74.5.7 32.8.7 33.9-1.1 32.5-3-2.5-5.5-9.4-6.2-17.4-.7-8.5-1.7-9.2-4.6-3.2-1 2-2.4 3.9-3.2 4.2-1.3.5-1.5 8.7-1.5 60.9 0 67.4-.6 60.6 8 96.5 5.1 21.7 7.9 37.3 8.7 49.2.5 8.9.8 9.9 3 11.4 3.8 2.4 6.4 9.4 6.8 18.2l.3 7.7 20.4 42.5c31.2 65 45.5 89.8 65.7 113.8 6.9 8.1 12.1 17 12.1 20.6 0 1.8 8.9 11.1 37.3 38.8 49.5 48.3 74.7 71.7 101 93.7 6.9 5.8 9.4 8.6 11.2 12.6 1.3 3 5.4 8.5 9.7 13.2 4.2 4.4 8.3 9.1 9.2 10.6 1 1.4 6.7 5.3 12.9 8.7 12.9 7.1 32.1 19.9 55.7 37.1 31.2 22.7 53.8 35.7 75.7 43.5l10.8 3.9h23c16.6-.1 25.8-.6 33-1.8 38.6-6.4 42.6-6.9 60.5-7.4l18.5-.6 6-4c3.3-2.3 10.8-7.5 16.6-11.7 5.8-4.2 14.1-9.4 18.3-11.6 7.6-3.8 7.7-4 7.2-7.1-.3-2.4.3-4.8 2.5-8.8 1.6-3 2.9-6.6 2.9-8 0-1.4.6-2.5 1.3-2.5.7 0 2.9-1.1 4.9-2.5 2.9-1.9 4.9-4.9 8.9-13 3.2-6.7 6.3-11.5 8.4-13.3 3.3-2.7 3.3-2.9 4.5-14.7.9-9.2.9-16.3-.1-31.5l-1.2-19.5-17.8-24c-21.8-29.6-31.4-41.1-42.9-51.7-10.7-9.8-23.5-18.8-26.8-18.8-5.7 0-23.2-4.4-43.3-11-12-3.8-23.2-7-25.1-7-1.9 0-7.2 1.1-11.8 2.5-4.8 1.4-10.9 2.5-14.2 2.5-5.4 0-6.7-.5-17.9-7-24.2-14.1-36.7-17.4-51-13.4l-5.7 1.6-9.2-6.2c-16.1-10.9-30.2-16-43.5-16-4.3 0-4.4-.1-5.6-4.3-1-3.9-.8-10.3.7-15.4.6-2.2.5-2.3-5.4-1.7-20 2.1-31.7-9.5-51.1-50.9l-5-10.8 4.7 3.5c5.9 4.5 12 8.1 15.1 9.1 2.4.7 2.4.7 1.8-4.3-.9-8-4.1-12.9-16.2-25.2-9.2-9.3-11.5-12.2-12-15.3-.4-2.1-.3-4.8.2-5.9.8-1.9 2.9.3 19 20.3 10 12.3 21.9 26.3 26.5 31.1 7.7 8 8.6 8.7 13.3 9.3 11.3 1.5 25 4.7 29.5 7 2.6 1.3 6.1 4 7.7 6 2.8 3.4 3.5 3.6 10.3 4.2 5.2.4 7.9 1.2 9.2 2.5 2.1 2.1 6.8 2.4 6.8.4 0-.7.9-2.5 2-3.9s2-3.2 2-4c0-1.9-7.3-8.6-19.5-17.9-5.5-4.2-11.3-9-12.9-10.7-1.8-1.9-4-3.1-5.5-3.1-1.9 0-5.3-2.8-13.6-11.3-9.4-9.5-22.8-25.6-22.1-26.4.2-.2 3 .8 6.4 2.2 8.4 3.4 15 3.4 19.1-.1 3.6-3 3.8-4.4 1.3-6.7-2.8-2.5-5.5-2-7.7 1.5-1.1 1.7-2.4 3.1-2.9 3-.5 0-4.8-11.7-9.5-25.9l-8.6-25.8-7.4-4c-23-12.6-38.3-37.2-45-72L278 837l3.1-9.2c3.5-10.5 3.3-11.7-2.5-25.8-3.7-9-6.6-22-8.8-38.5-.8-6.8-1.3-24.7-1.3-56.2v-46.1l-4.8-6.5c-7-9.7-7.9-12.4-7.5-23.5.2-7.3.7-9.6 1.9-10.6 1.4-1 1.8-3.6 2-14.7l.4-13.6 6.5-12.9c6.4-12.8 6.4-13 6.8-22.6l.4-9.8 5.8-5.4c3.2-2.9 8.1-6.8 10.8-8.6l5-3.2.4-12.1c.3-10.1.8-13 2.6-16.9 2.6-5.2 4.8-6.7 5.7-3.7.9 2.7 4.4 2.4 8.5-.6 1.9-1.4 3.8-2.1 4.2-1.7 1 1-1.3 13.7-3.7 20.2-.8 2.4-4.2 9.5-7.5 15.8-5 9.4-5.8 11.6-4.8 13.1.9 1.5.8 3.6-.5 9.5-.9 4.2-1.7 10.9-1.7 14.9 0 7-.1 7.3-4.6 13.1-7.4 9.4-8.4 12.3-8.4 25.8V619h3.1c4.7 0 6.7-1.6 9.9-8 3-5.9 6.1-9 9.1-9 1.2 0 2-2.1 3.3-8.2 4.1-19.2 14.4-47.3 28.8-78.8 4.9-10.7 13.2-29 18.4-40.5l9.6-21 4.7-2.2c2.5-1.2 7.4-4.2 10.7-6.5 5.3-3.7 6.2-4.8 6.8-8.3.4-2.1 2.7-7.3 5.2-11.5 3.6-6.2 5.8-8.6 11.7-12.8 7.6-5.4 17.5-14.3 42.9-38 8.4-7.9 17.3-15.4 19.8-16.7 5.4-2.7 26.9-17 32.4-21.4 3-2.4 4.8-3.1 8.2-3.1 3.7 0 6.4-1.2 16.9-7.5 22.3-13.5 54.7-28.5 61.4-28.5 1.4 0 4.2-1 6.1-2.2 33.2-20.6 75.1-33.3 129.5-39.2 19.4-2.1 53.6-3.9 68-3.4 11.7.3 12.1.4 16.7 3.5 2.5 1.8 5.7 3.7 7 4.2 1.3.5 10.2 1.4 19.8 2 30.2 2.1 39.1 4.2 49.4 12 5.5 4.2 7 4.8 15.7 6.4 34.8 6.1 71 26.4 103.5 57.9l13.1 12.8h8.6c6.8 0 8.6.3 9.1 1.6 1.9 4.9 9.3 13.7 23.8 28.4 15 15.2 16.8 17.4 22.7 28 10.3 18.4 13.2 23.1 18.8 29.7 5.2 6.1 5.3 6.4 5.3 12.5 0 6.2.1 6.4 3.5 8.2 4.3 2.3 7.4 6.9 11.5 16.9 1.8 4.3 4.2 9 5.5 10.5 1.2 1.5 2.8 5.2 3.5 8.2 1.8 7.9 7.2 23.2 14.1 40 3.2 8 7 18.4 8.3 23 1.3 4.7 4.5 15.2 7.2 23.5 4.5 14.1 4.8 15.7 4.9 26.1.1 11.1.1 11.2 3.4 14.9 3.4 3.9 5.1 7.4 5.1 10.5 0 1.5-.9 1.9-4.2 2.2-4.2.3-4.3.4-4.6 4.3-.2 3.4.4 4.9 3.8 9.3 3.2 4.3 3.8 5.7 3 7.2-1 1.8-1.1 1.8-3.4-.5-1.4-1.4-5-3.7-8.1-5.1-3-1.5-5.9-3.2-6.2-3.8-.4-.6-.8-3.1-.9-5.6 0-2.8-1.1-6.4-2.7-9.5-2.3-4.2-2.7-6.3-2.7-12.8 0-6.2-.4-8.5-1.9-10.6-1.1-1.6-2.1-4.9-2.3-7.7l-.3-4.9-1.5 3c-2.9 6.1-1.8 22.5 3.3 48 5.7 29 6.3 33.3 7.8 59 3.1 55.4-2.5 121.6-12.7 149.5-1.2 3.3-1.7 8.5-1.8 19-.2 16.6-1.4 20.6-6.6 21.7-2.5.4-3 1-3 3.4 0 1.6-.8 3.7-1.8 4.7-.9.9-3 6.7-4.5 12.8-4.5 18.3-10 30.2-26.1 56.3-12.8 20.7-17.8 29.8-22 39.9-2.7 6.8-4.4 9.1-11.2 15.9-10.9 10.8-32.4 41.1-32.4 45.6 0 1.9-1 4.7-2.5 6.7-1.3 1.8-2.2 3.7-1.9 4.2.8 1.2 5.8 0 11.2-2.5 4.7-2.3 5.8-1.9 6.8 2.8l.6 3-6.1-.3c-3.6-.2-8.3.3-11.7 1.3-5 1.4-7 2.9-16.3 11.9-10.1 9.9-15.2 13.6-18.5 13.6-.9 0-1.8 1.1-2.2 2.5-.4 1.5-1.3 2.5-2.4 2.5-2.5 0-9.1 5.5-11.7 9.8-2.7 4.3-3 11.8-.9 17.9l1.4 3.9-22.4 11.2c-12.3 6.2-23.3 11.2-24.3 11.2-2.5 0-3.1 1.1-4.5 7.8-.9 4.7-1.6 5.9-4.4 7.5-3.9 2.3-4.7 1.9-3.1-1.7 1.7-3.7.6-4.2-4.2-2.1-4.5 2.1-7.2 6.2-6.7 10.3.3 2.7.4 2.7 9.5 3.2 5 .3 9.5.8 9.8 1.2.4.3-4.7 3.4-11.2 6.7-13.3 6.8-26.4 15.1-46.8 29.7-7.7 5.6-16.6 11.8-19.7 13.9-3.2 2.1-5.8 4.1-5.8 4.4 0 .3 3 .4 6.6.3 4.4-.3 9.5.3 15.5 1.8 5.4 1.4 10.4 2 12.5 1.7 3.9-.7 3.9-.4-1.3 5.9-4.1 5.1-6.3 10.3-6.3 14.9 0 3.5 0 3.5 4.3 3.5 2.4 0 6.9-1.3 10.7-2.9 4.6-2.1 6.9-2.7 8.2-2 3.2 1.7 2.8 2.7-1.1 3.4-5.1.9-8.2 4.3-8.8 9.8l-.5 4.4 6.5.7c11.3 1.1 29.4-1.8 48.2-7.9 4.4-1.4-11 11.4-21 17.5-27.8 16.9-38 24.8-44.1 34-2 3-3.3 3.9-6.5 4.3-2.3.3-6.5 2.2-9.7 4.3-4.7 3.2-6.8 3.9-11.9 4.2-4.7.3-6.3.8-6.3 1.9 0 .8-.9 2.6-2 4-2.7 3.4-2.5 4.6.9 6.6 4.6 2.7 12.9 2.2 21.4-1.2 9.9-4 9.8-4 13.6-2.5 1.8.8 4.4 1.4 5.7 1.4 2.1 0 2.3-.3 1.3-2.6-2.5-6.6 2.1-8.9 15.9-8.1 5.3.4 13.2 1 17.5 1.3 7.4.7 7.9.6 10.5-1.9 1.5-1.4 5.4-4.2 8.6-6.1 7.7-4.6 13.4-4.9 16.5-1 1.2 1.5 2.1 2.9 2.1 3.3 0 .3-3.7 1.9-8.2 3.4-9.2 3.2-19.4 8-22.1 10.5-2.6 2.4-1.8 5.6 1.5 6 2.2.3 3-.2 3.8-2.2.8-2.2 1.6-2.6 4.9-2.6 2.7 0 10.4-2.7 24.3-8.6 27.1-11.4 46.4-21 59.2-29.5 6.6-4.3 11.5-6.9 13.3-6.9 4-.1 9.7-2.9 18-8.9 7.4-5.4 12.6-7.1 16.1-5.2 2 1.1 2.4.7 5.1-4.8 4.8-9.4 13-16 20.1-16.1 3.5 0 8 7.2 7.9 12.6-.1 3.6-.9 4.6-10.3 13.3-5.5 5.2-14.1 12-19.1 15.2-4.9 3.1-13 8.7-18 12.3-11.3 8.2-20.8 13-30.6 15.3-6.2 1.5-8.1 2.4-10.3 5-7.6 9.1-27.4 20.6-59.4 34.8l-13.2 5.9-3.6 7.3c-4.3 8.6-10.9 15.3-15.2 15.3-1.6 0-4.1-.9-5.5-2-1.4-1.1-3.7-2-5.1-2H900l1.7 3.5c.9 1.9 1.4 3.7 1.1 4.1-.6.5-3.7-.2-13.9-3.2-1.1-.3-2 .5-2.9 2.6-1.5 3.7-4.5 5.4-12.5 7-10.4 2.1-13.5 4.7-13.5 10.9v3.1h15c12.4 0 17.1-.4 26.7-2.6 6.5-1.4 15.9-3.4 20.8-4.4 5-1.1 12-2 15.6-2 6.3 0 7.6-.4 21.5-7.4 17.9-9 34.6-14.8 50.3-17.8 11.1-2.1 11.8-2.3 16.8-6.7 11.2-10 24.3-15.4 40.4-16.7 4.5-.4 8.5-1.2 9.1-1.8.5-.6 2-3.6 3.1-6.6l2.2-5.5 6.2-.3c5-.2 6.5-.7 7.3-2.2 1.3-2.5 7.3-5.6 12.5-6.4l4.1-.7v-5.4c0-8 2-10.2 12.4-13.5 4.7-1.5 10.6-3.7 13.2-4.8 12.2-5.4 26-17 33-27.6 3.7-5.8 4-6 11.4-8.1 9.8-2.9 16.2-7.5 27.3-19.5 9.7-10.5 15.7-15.1 23.3-17.8 4.7-1.6 4.8-1.7 4.8-6 0-2.6 1-6.2 2.5-9.2 1.5-2.9 2.5-6.7 2.5-9.2.1-4.1.3-4.4 4.3-6.3 2.5-1.2 5.9-4.2 8.5-7.5 8.5-10.9 11.5-14.2 14.6-15.7 1.7-.8 4.1-3.2 5.4-5.3 1.2-2.1 5.1-7.4 8.8-11.6 6.4-7.5 9.4-12.3 10.9-17.4.4-1.4 3.2-4.7 6.2-7.4 6.7-6.1 11.3-12.8 19.2-28.3 7.9-15.5 14.6-25.7 20.1-30.7 3.8-3.4 4.4-4.5 4.6-8.5.1-2.5 1.2-6.9 2.4-9.6 1.4-3 2.4-7.4 2.6-11.2.2-5.9.5-6.5 5.9-13 8.6-10.4 16.1-26.8 27.6-60.3 9.4-27.4 10.2-30.3 11-40.5 1.3-15.5 3.5-27.8 8-44 2.2-7.7 4.4-16.9 4.9-20.4.6-3.5 1.3-6.7 1.5-7.2.3-.4 2.6-12.6 5-27.1 2.4-14.5 4.9-27.7 5.4-29.3.9-2.8.9-2.8 1 1.7.1 5.5 1.8 9.8 3.8 9.8 1.2 0 1.4-8.3 1-56.3-.4-59.7-.8-65.8-5.8-83.7-1.8-6.2-2.2-11-2.5-28.5-.6-34.3-3.5-58.4-9.8-80.3l-3.3-11.2h4.4c5.3 0 8.3-1.4 8.3-3.9 0-3.8-4.6-5.1-10.2-2.7-2.6 1.2-5.4-8.1-6.8-22-.7-6.5-1.8-13.6-2.5-15.6-1.5-4.4-1.2-4.5 2.2-1.8 1.4 1.1 3.9 2 5.4 2 2.9 0 2.9 0 2.9-6.5 0-5.7-.3-6.9-2.5-9.1-1.7-1.7-3.2-2.3-4.5-1.9-3.6 1.1-8.1.8-9.4-.6-.7-.8-2.5-6.5-4-12.6-9.2-38.5-22.9-70.9-60.6-143.4-9.5-18.2-17-33.8-17-35.2 0-1.7-.5-2.7-1.5-2.7-.8 0-2-.9-2.7-2-.7-1.1-2-2-2.9-2-3.7 0-10.8-10.2-20.2-29-6.1-12.1-12.2-20.3-18.4-24.5-8.9-6-13.1-11.8-12.4-17.3.1-.8-1.8-1.2-6.9-1.2-6.9 0-7 0-7-2.7 0-5.1-4-11.2-11.1-16.9-7.2-5.9-10.9-11.6-10.9-17.2 0-3.1-.1-3.2-4.7-3.2-5.7 0-9.9-2.3-13.8-7.5-3.5-4.5-7.2-6.5-12.1-6.5-6 0-11.7-3.5-19-11.7-9.4-10.5-14.4-12.3-23.1-8.3-2.4 1-4.3 1.5-4.3 1 0-.6-1.6-2.7-3.5-4.9-3.9-4.2-4.2-5.8-2-8.7 2.2-2.9 1.8-3.4-1.7-2.7-5 .9-9.7 3.6-16.3 9.3-3.3 2.8-7.3 5.8-8.8 6.6-2.6 1.4-3 1.3-5.9-1.1-1.7-1.4-4.8-3.5-7-4.6-3.3-1.7-3.9-2.4-3.6-4.7.3-2.4.7-2.7 4.1-2.5 4.5.3 4.6-.5.9-7.2-3.7-6.8-5.8-6.9-12.2-.9-4.9 4.6-5.1 4.7-10.2 4.1-6.2-.8-15.4-5.1-30.2-14.1-12.4-7.5-19.6-10-26.8-9.4-6.2.6-7.6 1.9-5.8 5.3 2.7 5 10.6 14 16.5 18.8 5.9 4.7 22.3 13.7 25.1 13.7.8 0 1.4 1 1.4 2.5 0 2 .5 2.5 2.4 2.5 3.3 0 13.1 5.3 31 16.9 8.3 5.4 17.5 11 20.4 12.5l5.2 2.6v13l6.8 3.2c9.5 4.6 20.7 15.9 25.3 25.5 3.2 6.9 3.6 7.2 6.9 7.3 4 .1 6.2 1.7 10.9 7.8 1.8 2.3 4.3 4.5 5.6 4.8 1.4.3 2.5 1.5 2.9 3.2.3 1.5 3 5.8 6.1 9.6 4.4 5.3 5.3 7.1 4.4 8.2-1.9 2.3-12.1-5.6-29.9-23.6-14.3-14.4-18.5-17.9-31.7-26.8-18.1-12.2-26-18.6-30.3-24.5-2.8-4-3.6-4.5-8.3-5-7.4-.9-14.6-4.9-21.1-11.7-5-5.2-6.2-6-9.4-6-5.3-.1-11-3-16.6-8.6-6.4-6.4-10.5-9.4-12.9-9.4-1.1 0-7.7-2.9-14.6-6.4-16.2-8.3-30.8-14.2-66.6-27.3-15.9-5.8-34.2-12.8-40.5-15.4-6.3-2.7-12.9-4.9-14.6-4.9-1.7 0-11.8-1.8-22.5-3.9-41.1-8.3-77.8-13.7-107.8-16.1-18.5-1.4-61.9-1.1-77.6.6zM811 159c0 1.2-3.5 3.1-4.4 2.3-.8-.9 1.4-3.3 3-3.3.8 0 1.4.4 1.4 1zm31.8 8c6.4 2.2 14.4 4.4 17.7 4.8l6 .8-5.4 1.7c-6.7 2.1-9.7 2.1-18.1.2-8.6-2-25-7.7-25-8.8 0-.4 1-1.2 2.3-1.7 4.5-1.8 10.9-1 22.5 3zm281.3 16l4 2.1-2.1 2.8c-1.1 1.6-2 3.4-2 4 0 .6-1.5 1.1-3.4 1.1-3.4 0-3.4 0-2.3-3 .9-2.3.9-3.5-.1-5.1-1.3-2-.9-3.9.9-3.9.5 0 2.8.9 5 2zm21.7 12.8c1.9 2.5 1.5 6.2-.7 6.2-5.9 0-11.1-4.6-11.1-9.9 0-1.9 0-1.9 5.3.1 2.8 1 5.8 2.7 6.5 3.6zm-570.8.7c2.5 1.3 3 2.2 3 5.1 0 4.8-2.3 9.9-5.4 11.9-1.6 1.1-4.6 1.7-7.7 1.7-4.7 0-5.7.5-11.2 4.9-3.4 2.7-11.8 8.5-18.7 12.9-6.9 4.3-15.3 10.2-18.8 12.9-3.4 2.8-7.1 5.1-8.2 5.1-1.6 0-2 .7-2 3.2 0 7.5 6.7 9.1 12.9 2.9 5.2-5.2 12.1-8.2 28.1-12.4 13.9-3.7 22.3-6.8 25.1-9.3 1.3-1.2 1.8-1.1 3.7.2 3.7 2.6 2.8 6.4-3.4 14.1-5.8 7.1-5.7 7.2 13.4 7.5l16.7.3-8.5 5.7c-4.7 3.1-18.4 10.8-30.5 17-20 10.3-35.5 19.7-38.6 23.4-.9 1-4 1.4-12.4 1.4h-11.3l-4.4 3.6c-5.8 4.9-16.1 11.8-28.3 18.9-5.5 3.2-12.6 7.5-15.7 9.7-3.1 2.1-6.5 3.8-7.6 3.8-1 0-2.4 1.1-2.9 2.3-.6 1.3-3.7 4.6-7 7.3-7.5 6.3-8.1 7.1-9.5 12.1-1.2 4.1-1.4 4.3-5.3 4.3-3.9.1-4.4.5-23.7 21.3-28.6 30.9-38.4 43.2-48.3 61.1l-3.9 7-1.2-2.9c-1.7-4.1-.4-7.5 6.6-17.1 7.1-9.8 9-13.8 9-19.4v-4h13.5l1.8-6.3c5.7-19.3 14.6-29.3 29.4-33.1 4.2-1.1 4.7-1.6 5.8-5.2 2.4-8.3 7.8-16.4 19-28.5l11.3-12.3-1.9-3.7c-1-2.1-3.6-5-5.6-6.5-2.1-1.6-4.1-3.1-4.6-3.4-.4-.4 0-3.5.9-7.1 1.9-7.3 1.5-18-.9-24.6l-1.5-4.3 7.5-7.1c4.1-3.9 10.5-9 14.2-11.4 8.9-5.7 30.8-16.5 33.5-16.5 1.3 0 4.4-2.1 7.2-4.8 3.5-3.4 9-6.8 18.7-11.6 14.4-7.1 22.3-12.5 24.6-16.9 1.2-2.3 2.1-2.7 5.7-2.7 4.1 0 6.2-.9 23.4-10.1 4.2-2.3 10.1-2.4 14-.4zm395.5 7.4c-1.2 1.2-6.5 2.5-6.5 1.7s3.9-2.4 6-2.5c.9-.1 1 .2.5.8zm14.5 9.6c-.7.8-1.9 1.5-2.7 1.5-1.3 0-1.3-.3-.3-1.5.7-.8 1.9-1.5 2.7-1.5 1.3 0 1.3.3.3 1.5zm12.7 3.8c1.2.7 3.8 3.3 5.8 5.9 2 2.7 4.7 5.1 6.2 5.4 2.5.7 2.5.8.8 2-5.3 3.9-17.1-2.4-19.4-10.4-.5-1.7-.7-3.3-.3-3.6.9-1 4.6-.6 6.9.7zM419 291.4c0 .2-.8 1-1.7 1.7-1.6 1.3-1.7 1.2-.4-.4 1.3-1.6 2.1-2.1 2.1-1.3zM125 437.5c-1.3 1.6-4 2-4 .7 0-1.4 1.2-2.2 3.3-2.2 1.6 0 1.7.3.7 1.5zM226.5 451c.4.6-1.3 4.1-3.7 7.7-3.5 5.5-4.3 7.5-4.3 11.4v4.7l-2.7-1.4c-5-2.6-3.6-7 6.2-20.2 2.5-3.4 3.5-3.9 4.5-2.2zm99.5 29c0 1.1-.4 2-.9 2-1.4 0-2.3-1.8-1.6-3 1-1.7 2.5-1.1 2.5 1zm-183 15.5c-.7.8-1.9 1.5-2.7 1.5-1.3 0-1.3-.3-.3-1.5.7-.8 1.9-1.5 2.7-1.5 1.3 0 1.3.3.3 1.5zm-23 63c-.7.8-1.9 1.5-2.7 1.5-1.3 0-1.3-.3-.3-1.5.7-.8 1.9-1.5 2.7-1.5 1.3 0 1.3.3.3 1.5zm1046 115.3c2.4 6.4 3.9 20 4 35.7.1 19.9 2.7 30.5 9.2 37.2 3.1 3.2 3.1 3.3 2 8.4-.7 2.8-3.4 10.2-6.2 16.3-6.3 14.4-6.8 17.5-4.1 26.5 1.2 3.8 2.4 9 2.7 11.4 1.5 10.4-4.6 40.9-16 80.7-4.6 16.3-9 32.3-9.7 35.6-1 4.9-1.8 6.5-4.1 8-4.4 2.9-7.9 8.6-11.4 18.7-3.6 10.2-5.1 10.1-4.1-.2.4-4.5 2.2-9.4 7.6-21 9.8-20.8 11.6-28.3 9-38.6-1-4-.9-4.6 1.4-7.7 4.4-5.9 5.4-9.1 6.7-20.8.6-6.3 3.3-26.6 6-45 6.3-43.8 7.4-55.9 7.3-83.5-.1-27.8-.9-33.1-6.3-45.9-3.5-8.3-4.2-10.7-3.8-14.7.3-2.6 1.3-6 2.2-7.4 1.7-2.5 1.8-2.6 3.7-.9 1 .9 2.8 4.1 3.9 7.2zM17 769.7c0 1.8-.4 3.3-.9 3.3-1.5 0-2.4-3.8-1.6-6.8.5-2 .8-2.3 1.6-1.1.5.7.9 2.9.9 4.6zm1104.4 199.9c2.1 5.5-.8 11.4-5.6 11.4-2.9 0-3-.1-1.5-1.8 1-1.1 1.7-3.5 1.7-5.9 0-2.2.3-4.3.7-4.6 1.2-1.3 4.1-.7 4.7.9zm-848.1 16.9l3.1 1.3-3.2 1.6c-1.7.9-3.5 2.4-4.1 3.3-1.7 3.2-3.5-.2-3.9-7.5l-.3-6.7 2.7 3.4c1.5 1.8 4.1 3.9 5.7 4.6zm832.3 14.1c-.5 1.3-1 1.4-1.8.6-.6-.6-.8-1.8-.4-2.8.5-1.3 1-1.4 1.8-.6.6.6.8 1.8.4 2.8zm-30.6 40.8c0 1.5-2.9 3-3.9 2-.3-.3.3-1.2 1.3-2 2.4-1.7 2.6-1.7 2.6 0zm-23 32.1c-.7.8-1.9 1.5-2.7 1.5-1.3 0-1.3-.3-.3-1.5.7-.8 1.9-1.5 2.7-1.5 1.3 0 1.3.3.3 1.5zm-31.5 32.2c-6.6 6.1-11.4 9.7-12.1 9.1-.7-.7 3.9-4.9 10.6-9.7 7.2-5.2 7.6-5 1.5.6zm-78.5 70.6c0 .2-1 1.2-2.2 2.3l-2.3 1.9 1.9-2.3c1.8-2.1 2.6-2.7 2.6-1.9zm-11 48.5c0 2.5-7 6.8-15.7 9.6-5.5 1.8-10.3 6.3-10.3 9.7 0 1-.4 1.9-1 1.9-4.5 0 9.2-15.4 17.3-19.4 5-2.6 9.7-3.4 9.7-1.8zm14 22.6c0 1.5-2.9 3-3.9 2-.3-.3.3-1.2 1.3-2 2.4-1.7 2.6-1.7 2.6 0zm-50.3 1.3c-.9.9-1.9 1.4-2.3 1.1-1-1 .6-2.8 2.4-2.8 1.5 0 1.5.1-.1 1.7zm205.8 24.8c2 1.9 3.4 3.9 3 4.5-1.3 2-4.4.9-6.4-2.4-4-6.4-2.2-7.5 3.4-2.1zm-151.6 11.1c-.6.8-1.8 1.4-2.7 1.4-1.3 0-1.2-.3.3-2 2-2.2 4.3-1.7 2.4.6zM995 1319c0 1.2-4 3.3-4.8 2.5-.4-.4.2-1.3 1.2-2.1 2.3-1.6 3.6-1.8 3.6-.4zm-38 19c-2 1.3-6.3 1.3-5.5 0 .3-.6 2.1-1 3.8-1 2.4 0 2.8.3 1.7 1zm72.3 36.2c-1.3 1.2-2.5 1.9-2.9 1.5-1-1 1.6-3.7 3.4-3.7 1.3 0 1.2.4-.5 2.2z" />
  <path d="M450.5 265c-3.6 1.4-6.6 5.7-7.2 10l-.6 4.3 4.8-.5c6.1-.7 9.1-3.7 10-10.1.7-4.7.7-4.7-2.1-4.6-1.6 0-3.8.4-4.9.9zM535.6 267.1c-6.7 2.3-9.9 2.9-12.8 2.4l-3.8-.7v9.5c0 10.4.2 10.7 6.5 10.7 3.6 0 5.4-1.3 8.2-6.1 1-1.6 2.9-3.2 4.3-3.5 6.5-1.5 7.5-2.1 8.7-5.7 1.4-4 .7-9.7-1.1-9.7-.6.1-5.1 1.4-10 3.1zM497 292v5h10v-10h-10v5zM485.3 296.2c-2.3 1.1-3.3 5.8-1.2 5.8 2.5 0 4.9-2.2 4.9-4.5 0-2.7-.4-2.9-3.7-1.3zM459.3 315c-2.8 1.1-3 4-.4 4 3.3 0 7.1-1.9 7.1-3.5 0-1.7-3.2-1.9-6.7-.5zM439.5 131.4c-5.4 1.7-7.4 2.8-19 10.6-5.5 3.7-14.5 9.1-20 12-10.8 5.8-20.3 11.9-22.3 14.3-.7.9-3.1 1.8-5.2 2.2-2.2.4-5.9 2.1-8.2 3.9-6.7 5.1-8.5 5.8-14.7 5.4l-5.7-.3-9.6 10.5c-12.7 13.9-38.8 37.3-45.8 41-1 .6-3.4 3.8-5.2 7.2-4.2 7.9-12.3 16.2-21.4 21.8-5.8 3.5-7.3 5.1-8.8 8.7-1.1 2.6-5.8 8.6-11.2 14.5-9.6 10.4-13.4 16.4-13.4 21.1 0 2.7 2.8 10.7 3.7 10.7.3 0 2.7-1.6 5.3-3.5 5-3.7 8.6-7.9 11.3-13.2 1.3-2.4 2.2-3 3.7-2.6 1.4.4 2.7-.3 4.2-2.2 4-5.1 6.2-6.6 9.1-6.3 2.4.3 3-.3 5.1-4.8 1.8-3.8 5.1-7.5 13.1-14.8 5.9-5.3 14-13.1 18-17.4 4.4-4.7 9.1-8.6 11.7-9.8 2.3-1 5.8-3.7 7.8-5.9 1.9-2.2 11.4-12.1 21-22s19.1-20.2 21-22.7c2.6-3.5 4.7-5.2 8-6.3 2.5-.8 8.8-4.7 14-8.6 11.3-8.4 15.4-10.6 21-11.5 2.5-.4 5-1.6 5.9-2.7 4-5.2 8.3-8.3 18.1-13.2 11.3-5.7 14-8 16.5-13.8l1.5-3.7-2.7.1c-1.6 0-4.6.6-6.8 1.3zM1098 162.9c-.5 1.1-1 2.4-1 3 0 1.3 7.3 5.1 9.8 5.1 4.2 0 4.9-4.2 1.4-8.3-2.1-2.4-8.8-2.3-10.2.2zM264 212.6c-25.1 12.2-38.8 23.5-45.6 37.8-4.3 8.9-4.4 10.6-.4 10.6 2.1 0 4.3 1.2 7.3 3.9 5.1 4.7 7.8 6.1 11.2 6.1 3.9 0 6.5-1.8 6.5-4.5 0-3.1 2.5-5.5 5.8-5.5 2.5 0 2.9-.6 5.7-9.8 3.8-12.5 12.1-29.2 18.6-37.7 2.8-3.7 4.9-6.8 4.7-7.1-.2-.2-6.5 2.6-13.8 6.2zM376.1 215c-2.3.5-5.4 2.8-9.2 6.9-3.2 3.4-6.5 6.1-7.2 6.1-1.7 0-19.7 18.3-19.7 20 0 .9 1.6 1.1 6.8.5 3.7-.4 7-.9 7.3-1.1.4-.2.9-1.7 1.2-3.3.9-4.5 7-10.5 15.7-15.6 7.3-4.2 15-10.7 15-12.7 0-.4-.9-.8-1.9-.8-1.1 0-2.5-.2-3.3-.4-.7-.2-2.8 0-4.7.4zM288.9 290.7c-1.5 1.5-4.9 6.2-7.7 10.4-4.8 7.2-10.2 12.9-12.3 12.9-1.4 0-1.1 5.4.4 7.4 2 2.7 4.6 1.4 9.1-4.5 2.1-2.8 4.9-5.6 6.2-6.1 1.3-.6 2.6-1.9 2.9-3 .4-1 1.4-1.8 2.4-1.8 1.2 0 2-1.2 2.7-4.3.8-3.9 1.1-4.2 4.7-4.5 2-.2 3.7-.7 3.7-1.1 0-.4-1-2.3-2.3-4.2-3-4.5-6.4-4.9-9.8-1.2zM212.1 336.6c-7.1 5.3-13.1 12.6-17.3 20.8-5 9.9-1.4 14.6 5.1 6.6 1.8-2.2 4.1-4 5.1-4 1.7 0 2-.7 2-4 0-3.2 1.2-5.7 6.5-13.5 3.6-5.2 6.5-9.7 6.5-10 0-1.3-2.3-.1-7.9 4.1zM216.1 382.4c-1.6 3.4-3.6 6.6-4.6 6.9-2.8 1.1-1.5 5.1 1.8 5.5 1.8.2 2.7-.1 2.5-.9-.2-.7 1-1.9 2.5-2.7 3-1.5 5-5.2 6.1-11.5.7-3.6.6-3.7-2.4-3.7-2.8 0-3.3.5-5.9 6.4zM196 395.1c0 2.3 2.2 4.9 4 4.9 2.3 0 2.7-2.9.8-4.8-1.5-1.5-4.8-1.6-4.8-.1zM191.6 405.2c-.3 1.3-2.8 5.9-5.6 10.3-4 6.3-5 8.7-4.8 11.4.4 4.1 2.4 5.2 3.7 1.9.5-1.3 3.2-6.1 6-10.7 5.2-8.5 6.1-11.7 3.9-13.9-1.7-1.7-2.5-1.5-3.2 1zM1095.3 484.7c-2.3.9-1.3 4.7 2.7 10.7 3.4 5 4 6.7 4 11.1 0 4.6.3 5.3 2.5 6.3 5.8 2.7 7.5 1.2 7.5-6.1 0-3.4-.4-4.4-2.2-5.2-1.7-.7-2.4-2-2.6-4.7-.3-2.9-1-4.1-3.6-5.7-1.8-1.1-3.8-3.2-4.4-4.6-1.2-2.5-1.7-2.8-3.9-1.8zM1111 523.7c0 5.7 1.6 10.7 7.2 22.6 2.8 6 5.3 12.8 5.6 15.3.3 2.7 1 4.4 1.8 4.4 1.5 0 2 1.6 3 8.5 1 7.6 5.2 17.5 7.4 17.5 4.1 0 3.3-12.6-1.5-24.3-7.5-17.9-8.8-21.5-9.2-25.2-.3-2.2-1.4-4.7-2.4-5.5-1.2-1-2.3-3.9-3-7.8-1.2-6.9-2.8-9.2-6.5-9.2-2.1 0-2.4.4-2.4 3.7zM1401.7 556.7c-2.7 2.6 1.6 15.6 5.5 16.9 3.3 1 4.8-2 4.8-9.3 0-5.9-.2-6.4-2.6-7.3-2.9-1.1-6.8-1.3-7.7-.3zM4.6 691.6c-2 1.9-2 3.3-.2 4 2.2.8 5.6-1.4 5.6-3.6 0-2.5-3.2-2.7-5.4-.4zM358 988.8c0 6.6 12.2 17.2 19.8 17.2 4 0 4.2-2.1.3-3.8-1.6-.7-4.9-3.7-7.3-6.6-4.3-5.4-9.4-9.6-11.6-9.6-.7 0-1.2 1.3-1.2 2.8zM341.4 1054.5c-.4.9-.2 2.7.4 3.9 1.1 2.4 9.6 8.6 11.8 8.6 1.7 0 .9-4.9-1.5-10-1.4-3.1-2.1-3.5-5.9-3.8-3.2-.2-4.4.1-4.8 1.3zM393.5 1062.7c-4.9 1.2-6 4.3-1.4 4.3 3.8 0 6.9-1.6 6.9-3.5 0-1.5-1.7-1.7-5.5-.8zM889.2 1198.3c-1.2 1.3-2.2 3.4-2.2 4.6 0 2.1.3 2.3 3.6 1.8 4.7-.8 8.4-3.3 8.4-5.6 0-3.7-6.6-4.2-9.8-.8zM904.5 1202.6c-2.2.9-8.3 2.4-13.5 3.4-5.2 1-10.3 2.1-11.2 2.5-3.1 1.2-2 3.3 2.7 5.1 8 3 18 .1 24.3-7.1 3.1-3.4 4-5.6 2.5-5.4-.5 0-2.6.7-4.8 1.5zM838.2 1242.2c-1.8 1.8-1.5 4.8.6 4.8 2.3 0 4.2-1.9 4.2-4.2 0-2.1-3-2.4-4.8-.6zM823.7 1247.4c-.4.9-2.3 2.3-4.4 3.3-2.1 1-3.9 2.6-4.1 3.6-.3 1.6.1 1.7 3.5 1.2 6.6-1.2 14.5-5.2 14.1-7.2-.4-2.4-8.3-3.1-9.1-.9zM828 1318.5c0 2.4-4.3 3.5-13.6 3.5-8.4 0-8.4 0-8.4 2.6 0 1.8-1.4 3.9-4.7 7l-4.8 4.4h7.6c6 0 7.8-.3 8.3-1.5.5-1.5 12.5-7.5 14.9-7.5 1.3 0 4.7-5.4 4.7-7.5 0-.7-.7-1.6-1.6-1.9-2.2-.9-2.4-.8-2.4.9zM784 1336.4c0 2.1 4 4.6 7.2 4.6 3.3 0 3.5-1.3.8-4-2.4-2.4-8-2.7-8-.6z" />
</svg>
